<svg xmlns="http://www.w3.org/2000/svg" xmlns:xlink="http://www.w3.org/1999/xlink" width="420.2" height="209.6" viewBox="0 0 420.2 209.6"><defs><clipPath id="a"><path d="M379.2,950.6q-6.6-7.6-6.6-19.4,0-11.9,6.6-19.5t18.5-7.6q11.9,0,18.5,7.6t6.6,19.5q0,11.8-6.6,19.4t-18.5,7.6Q385.8,958.2,379.2,950.6Zm7-33.75q-4.6,5.25-4.6,14.351t4.6,14.3a15.318,15.318,0,0,0,23,0q4.6-5.2,4.6-14.3t-4.6-14.351a15.221,15.221,0,0,0-23,0Zm-230.5,39.4a15.2,15.2,0,0,1-7.3-6.15h-.2V957h-8.5V885.6h8.5v26.7h.2a12.9,12.9,0,0,1,6.45-6.151A23.755,23.755,0,0,1,164.9,904.1q11.4,0,17.6,7.8t6.2,19.4q0,11.6-6.151,19.25T165.1,958.2A24.369,24.369,0,0,1,155.7,956.25Zm-3.9-38.95a23.849,23.849,0,0,0-3.9,13.8q0,8.4,4.05,14t12.25,5.6q8.1,0,11.8-5.75t3.7-14.25a22.225,22.225,0,0,0-4.1-13.5q-4.1-5.6-11.9-5.6Q155.7,911.6,151.8,917.3ZM86.7,956.25a15.2,15.2,0,0,1-7.3-6.15h-.2V957H70.7V885.6h8.5v26.7h.2a12.909,12.909,0,0,1,6.45-6.151A23.756,23.756,0,0,1,95.9,904.1q11.4,0,17.6,7.8t6.2,19.4q0,11.6-6.15,19.25T96.1,958.2A24.373,24.373,0,0,1,86.7,956.25ZM82.8,917.3a23.848,23.848,0,0,0-3.9,13.8q0,8.4,4.05,14t12.25,5.6q8.1,0,11.8-5.75t3.7-14.25a22.225,22.225,0,0,0-4.1-13.5q-4.1-5.6-11.9-5.6Q86.7,911.6,82.8,917.3ZM38.9,950.2q-6.8,8-18.2,8-7.6,0-12.35-3.6T3.6,943.7A16.575,16.575,0,0,1,5,936.55a10.392,10.392,0,0,1,4.2-4.6,28.219,28.219,0,0,1,5.351-2.5A56.107,56.107,0,0,1,21.1,927.8q2-.4,5.3-.85t5-.8a29.706,29.706,0,0,0,3.6-1,4.958,4.958,0,0,0,2.7-1.9,5.546,5.546,0,0,0,.8-3.05q0-8.6-11.5-8.6-12.4,0-12.9,9.8H5.6q.4-9,6.4-13.15t15.5-4.15q19.4,0,19.4,14.2v26.6a17.1,17.1,0,0,0,.4,4.65q.4,1.149,2.3,1.149a7.774,7.774,0,0,0,2.6-.5v6.6a11.64,11.64,0,0,1-6.1,1.4Q38.9,958.2,38.9,950.2ZM34.65,932a49.41,49.41,0,0,1-6.3,1.1q-4.05.5-5.35.7a18.264,18.264,0,0,0-7.65,2.949Q12.6,938.8,12.6,943.1a6.369,6.369,0,0,0,2.85,5.75A12.881,12.881,0,0,0,22.6,950.7q7.6,0,11.7-3.749T38.4,939v-8.7A11.161,11.161,0,0,1,34.65,932ZM343.9,957V905.3h8.5V957Zm-46.3,0-19.2-51.7h9.5l14.5,43.1h.2l14.1-43.1h8.9L306.7,957Zm-45.7,0V905.3h8.5V957Zm-43.8,0V905.3h8v10.9h.2q3.1-6.4,7.65-9.35a19.365,19.365,0,0,1,11.35-2.75v9q-9.9,0-14.3,5.3T216.6,934v23Zm135.8-61V885.6h8.5V896Zm-92,0V885.6h8.5V896Z" transform="translate(470 -536)" fill="#313131" stroke="rgba(0,0,0,0)" stroke-width="1"/></clipPath></defs><g transform="translate(-473.1 -281)"><path d="M379.2,950.6q-6.6-7.6-6.6-19.4,0-11.9,6.6-19.5t18.5-7.6q11.9,0,18.5,7.6t6.6,19.5q0,11.8-6.6,19.4t-18.5,7.6Q385.8,958.2,379.2,950.6Zm7-33.75q-4.6,5.25-4.6,14.351t4.6,14.3a15.318,15.318,0,0,0,23,0q4.6-5.2,4.6-14.3t-4.6-14.351a15.221,15.221,0,0,0-23,0Zm-230.5,39.4a15.2,15.2,0,0,1-7.3-6.15h-.2V957h-8.5V885.6h8.5v26.7h.2a12.9,12.9,0,0,1,6.45-6.151A23.755,23.755,0,0,1,164.9,904.1q11.4,0,17.6,7.8t6.2,19.4q0,11.6-6.151,19.25T165.1,958.2A24.369,24.369,0,0,1,155.7,956.25Zm-3.9-38.95a23.849,23.849,0,0,0-3.9,13.8q0,8.4,4.05,14t12.25,5.6q8.1,0,11.8-5.75t3.7-14.25a22.225,22.225,0,0,0-4.1-13.5q-4.1-5.6-11.9-5.6Q155.7,911.6,151.8,917.3ZM86.7,956.25a15.2,15.2,0,0,1-7.3-6.15h-.2V957H70.7V885.6h8.5v26.7h.2a12.909,12.909,0,0,1,6.45-6.151A23.756,23.756,0,0,1,95.9,904.1q11.4,0,17.6,7.8t6.2,19.4q0,11.6-6.15,19.25T96.1,958.2A24.373,24.373,0,0,1,86.7,956.25ZM82.8,917.3a23.848,23.848,0,0,0-3.9,13.8q0,8.4,4.05,14t12.25,5.6q8.1,0,11.8-5.75t3.7-14.25a22.225,22.225,0,0,0-4.1-13.5q-4.1-5.6-11.9-5.6Q86.7,911.6,82.8,917.3ZM38.9,950.2q-6.8,8-18.2,8-7.6,0-12.35-3.6T3.6,943.7A16.575,16.575,0,0,1,5,936.55a10.392,10.392,0,0,1,4.2-4.6,28.219,28.219,0,0,1,5.351-2.5A56.107,56.107,0,0,1,21.1,927.8q2-.4,5.3-.85t5-.8a29.706,29.706,0,0,0,3.6-1,4.958,4.958,0,0,0,2.7-1.9,5.546,5.546,0,0,0,.8-3.05q0-8.6-11.5-8.6-12.4,0-12.9,9.8H5.6q.4-9,6.4-13.15t15.5-4.15q19.4,0,19.4,14.2v26.6a17.1,17.1,0,0,0,.4,4.65q.4,1.149,2.3,1.149a7.774,7.774,0,0,0,2.6-.5v6.6a11.64,11.64,0,0,1-6.1,1.4Q38.9,958.2,38.9,950.2ZM34.65,932a49.41,49.41,0,0,1-6.3,1.1q-4.05.5-5.35.7a18.264,18.264,0,0,0-7.65,2.949Q12.6,938.8,12.6,943.1a6.369,6.369,0,0,0,2.85,5.75A12.881,12.881,0,0,0,22.6,950.7q7.6,0,11.7-3.749T38.4,939v-8.7A11.161,11.161,0,0,1,34.65,932ZM343.9,957V905.3h8.5V957Zm-46.3,0-19.2-51.7h9.5l14.5,43.1h.2l14.1-43.1h8.9L306.7,957Zm-45.7,0V905.3h8.5V957Zm-43.8,0V905.3h8v10.9h.2q3.1-6.4,7.65-9.35a19.365,19.365,0,0,1,11.35-2.75v9q-9.9,0-14.3,5.3T216.6,934v23Zm135.8-61V885.6h8.5V896Zm-92,0V885.6h8.5V896Z" transform="translate(470 -536)" fill="#212121" stroke="rgba(0,0,0,0)" stroke-width="1"/><circle cx="104.8" cy="104.8" r="104.8" transform="translate(578 281)" fill="#212121"/><g clip-path="url(#a)"><circle cx="104.8" cy="104.8" r="104.8" transform="translate(578 281)" fill="#313131"/></g></g></svg>